<svg xmlns="http://www.w3.org/2000/svg" width="1600" height="900" viewBox="0 0 1600 900" fill="none">
  <defs>
    <linearGradient id="bg" x1="0" y1="0" x2="0" y2="1">
      <stop offset="0" stop-color="#ffffff" stop-opacity="0.9"/>
      <stop offset="1" stop-color="#efe6db" stop-opacity="1"/>
    </linearGradient>
    <radialGradient id="glow" cx="0" cy="0" r="1" gradientUnits="userSpaceOnUse" gradientTransform="translate(800 120) rotate(90) scale(520 820)">
      <stop offset="0" stop-color="#ffffff" stop-opacity="0.42"/>
      <stop offset="0.55" stop-color="#EFE6DB" stop-opacity="0.38"/>
      <stop offset="1" stop-color="#F6EFE6" stop-opacity="0"/>
    </radialGradient>
    <linearGradient id="frame" x1="0" y1="0" x2="1" y2="1">
      <stop offset="0" stop-color="#E6D9C7"/>
      <stop offset="1" stop-color="#F6EFE6"/>
    </linearGradient>
  </defs>

  <rect width="1600" height="900" rx="56" fill="url(#bg)"/>
  <rect width="1600" height="900" rx="56" fill="url(#glow)"/>

  <!-- “Photo” frame -->
  <g transform="translate(190 110)">
    <rect x="0" y="0" width="1220" height="680" rx="44" fill="#FBF7F1" stroke="#E6D9C7" stroke-width="4"/>
    <rect x="34" y="34" width="1152" height="612" rx="36" fill="#EFE6DB"/>
    <path d="M34 480C210 398 324 404 470 470C640 546 772 520 926 430C1050 358 1102 356 1186 392V646H34V480Z" fill="#DCCEBB"/>
    <path d="M34 520C220 456 350 460 486 520C648 590 792 586 956 510C1088 450 1130 452 1186 482V646H34V520Z" fill="#CDBDA7"/>

    <!-- Minimal silhouette -->
    <g transform="translate(760 140)">
      <circle cx="170" cy="160" r="110" fill="#111827" fill-opacity="0.10"/>
      <circle cx="170" cy="150" r="74" fill="#111827" fill-opacity="0.18"/>
      <path d="M48 428C78 332 120 286 170 286C220 286 262 332 292 428C304 468 276 504 232 516C206 524 186 526 170 526C154 526 134 524 108 516C64 504 36 468 48 428Z" fill="#111827" fill-opacity="0.16"/>
    </g>

    <!-- Caption -->
    <g transform="translate(70 60)">
      <text x="0" y="0" font-family="ui-sans-serif, system-ui, -apple-system" font-size="16" fill="#111827" fill-opacity="0.55">Placeholder photo</text>
      <text x="0" y="28" font-family="ui-sans-serif, system-ui, -apple-system" font-size="22" fill="#111827" fill-opacity="0.9">Minjae</text>
      <text x="0" y="56" font-family="ui-sans-serif, system-ui, -apple-system" font-size="16" fill="#111827" fill-opacity="0.55">Replace with your real image later</text>
    </g>
  </g>
</svg>

